<svg xmlns="http://www.w3.org/2000/svg" viewBox="0 0 494.84 85.6"><defs><style>.cls-1{fill:#004282;}.cls-2{fill:#fff;}.cls-3{fill:#6f3d24;}.cls-4{fill:#f58220;}</style></defs><g id="Layer_2" data-name="Layer 2"><g id="AW"><path class="cls-1" d="M213.92,2.94h4.94c5,0,8.93,3.07,8.93,8.23,0,5.61-3.41,8.52-8.93,8.52h-4.94Zm2.4,14.64h2.52c4.13,0,6.41-2,6.41-6.32a5.84,5.84,0,0,0-6.12-6.21h-2.81Z"></path><path class="cls-1" d="M241.89,19.19A9.45,9.45,0,0,1,238,20c-4.34,0-6.33-2.64-6.33-6.63,0-3.62,2.28-6.19,5.73-6.19,4.08,0,5.4,3,5.4,6.91h-8.73a4,4,0,0,0,4,4.08,7.19,7.19,0,0,0,3.77-1.22Zm-1.47-6.8c0-1.87-1.1-3.41-3-3.41-2.21,0-3.13,1.83-3.29,3.41Z"></path><path class="cls-1" d="M246.79,7.45H249V9.18h0a4.9,4.9,0,0,1,4.16-2c3.55,0,5.28,2.9,5.28,6.19S256.88,20,253.18,20a4.37,4.37,0,0,1-4.08-2h0v6.72h-2.26ZM252.68,9c-2.45,0-3.63,2.33-3.63,4.61,0,2,1.06,4.56,3.6,4.56s3.43-2.71,3.39-4.63C256.08,11.31,255.12,9,252.68,9Z"></path><path class="cls-1" d="M262.89,8.31a7.81,7.81,0,0,1,4-1.15c3.51,0,4.92,1.73,4.92,5.06v5.07a18.61,18.61,0,0,0,.1,2.4h-2.11V18.11h-.05A4.56,4.56,0,0,1,266,20c-2.64,0-4.49-1.15-4.49-3.82,0-3.07,3.36-4,5.69-4,.88,0,1.51,0,2.4,0,0-2.12-.77-3.2-3-3.2A5.74,5.74,0,0,0,263,10.23Zm6.7,5.55c-.48,0-1,0-1.44,0-1.23,0-4.25.19-4.25,2.35a2.15,2.15,0,0,0,2.28,2,3.09,3.09,0,0,0,3.41-3.21Z"></path><path class="cls-1" d="M275.47,7.45h2.11V9.34h.05a3.72,3.72,0,0,1,3.19-2.18,6.18,6.18,0,0,1,1.49.17v2a3.53,3.53,0,0,0-1.25-.21c-2,0-3.34,1.92-3.34,5v5.57h-2.25Z"></path><path class="cls-1" d="M292.07,9.27h-3.24V16a1.93,1.93,0,0,0,1.89,2.18,2.77,2.77,0,0,0,1.54-.43v1.92a6.81,6.81,0,0,1-1.92.34c-2.33,0-3.77-1.11-3.77-3.55V9.27h-2.76V7.45h2.76V4.62l2.26-.72V7.45h3.24Z"></path><path class="cls-1" d="M295.62,7.45h2.12V9.22h0a4.15,4.15,0,0,1,3.89-2.06,3.61,3.61,0,0,1,3.48,2.38,4.35,4.35,0,0,1,3.79-2.38c3.12,0,4.25,2,4.25,4.68v7.85h-2.25v-7.3c0-1.51-.36-3.41-2.19-3.41-2.3,0-3.21,2.26-3.21,4.54v6.17h-2.26v-7.3c0-1.51-.36-3.41-2.18-3.41-2.31,0-3.22,2.26-3.22,4.54v6.17h-2.26Z"></path><path class="cls-1" d="M327.89,19.19A9.45,9.45,0,0,1,324,20c-4.34,0-6.33-2.64-6.33-6.63,0-3.62,2.28-6.19,5.73-6.19,4.08,0,5.4,3,5.4,6.91h-8.73a4,4,0,0,0,4,4.08,7.19,7.19,0,0,0,3.77-1.22Zm-1.47-6.8c0-1.87-1.1-3.41-3-3.41-2.21,0-3.12,1.83-3.29,3.41Z"></path><path class="cls-1" d="M332.57,7.45h2.19V9.39h.05a4.39,4.39,0,0,1,4-2.23c3.17,0,4.59,2,4.59,5.26v7.27h-2.26V13.35c0-2.85-.62-4.25-2.59-4.37-2.57,0-3.72,2.07-3.72,5v5.66h-2.26Z"></path><path class="cls-1" d="M354.13,9.27h-3.24V16a1.93,1.93,0,0,0,1.89,2.18,2.77,2.77,0,0,0,1.54-.43v1.92a6.88,6.88,0,0,1-1.92.34c-2.33,0-3.77-1.11-3.77-3.55V9.27h-2.76V7.45h2.76V4.62l2.26-.72V7.45h3.24Z"></path><path class="cls-1" d="M369.86,7.16a6,6,0,0,1,6.22,6.41,6.23,6.23,0,1,1-12.46,0A6,6,0,0,1,369.86,7.16Zm0,11c2.64,0,3.82-2.4,3.82-4.58,0-2.33-1.42-4.59-3.82-4.59S366,11.24,366,13.57C366,15.75,367.19,18.15,369.86,18.15Z"></path><path class="cls-1" d="M381.31,9.27h-2.88V7.45h2.88V6.32c0-3,.77-4.92,4.11-4.92a9.48,9.48,0,0,1,1.51.14l-.1,1.83a3.39,3.39,0,0,0-1.08-.15c-1.94,0-2.18,1.25-2.18,2.91V7.45h3.24V9.27h-3.24V19.69h-2.26Z"></path><path class="cls-1" d="M405,5.46a7.38,7.38,0,0,0-3.14-.7c-1.35,0-2.93.48-2.93,2.23,0,3.22,7.2,2.47,7.2,8,0,3.57-2.76,5-6.12,5a11.15,11.15,0,0,1-3.43-.7l.24-2.23a10,10,0,0,0,3.48.82c1.36,0,3.28-.77,3.28-2.74,0-3.75-7.2-2.71-7.2-7.92,0-3,2.36-4.56,5.38-4.56a11.2,11.2,0,0,1,3.58.6Z"></path><path class="cls-1" d="M415.75,9.27h-3.24V16a1.93,1.93,0,0,0,1.89,2.18,2.77,2.77,0,0,0,1.54-.43v1.92A6.88,6.88,0,0,1,414,20c-2.33,0-3.77-1.11-3.77-3.55V9.27h-2.76V7.45h2.76V4.62l2.26-.72V7.45h3.24Z"></path><path class="cls-1" d="M420.2,8.31a7.78,7.78,0,0,1,4-1.15c3.5,0,4.92,1.73,4.92,5.06v5.07a18.61,18.61,0,0,0,.1,2.4h-2.12V18.11h0a4.56,4.56,0,0,1-3.8,1.87c-2.64,0-4.48-1.15-4.48-3.82,0-3.07,3.36-4,5.68-4,.89,0,1.52,0,2.4,0,0-2.12-.76-3.2-3-3.2a5.74,5.74,0,0,0-3.55,1.25Zm6.69,5.55c-.48,0-1,0-1.44,0-1.22,0-4.25.19-4.25,2.35a2.15,2.15,0,0,0,2.28,2,3.09,3.09,0,0,0,3.41-3.21Z"></path><path class="cls-1" d="M440,9.27H436.8V16a1.93,1.93,0,0,0,1.89,2.18,2.77,2.77,0,0,0,1.54-.43v1.92a6.81,6.81,0,0,1-1.92.34c-2.33,0-3.77-1.11-3.77-3.55V9.27h-2.76V7.45h2.76V4.62l2.26-.72V7.45H440Z"></path><path class="cls-1" d="M446,4.71h-2.54V2.17H446Zm-2.4,2.74h2.26V19.69h-2.26Z"></path><path class="cls-1" d="M449.39,17.29a6,6,0,0,0,2.81.86c1,0,2.3-.43,2.3-1.75,0-2.23-5.3-2-5.3-5.47,0-2.55,1.89-3.77,4.32-3.77a9.61,9.61,0,0,1,2.81.48l-.19,2A6.68,6.68,0,0,0,453.76,9c-1.15,0-2.16.48-2.16,1.49,0,2.5,5.3,1.78,5.3,5.69,0,2.62-2.08,3.82-4.27,3.82a7.06,7.06,0,0,1-3.36-.67Z"></path><path class="cls-1" d="M466.52,9.27h-3.24V16a1.94,1.94,0,0,0,1.9,2.18,2.8,2.8,0,0,0,1.54-.43v1.92a6.89,6.89,0,0,1-1.93.34c-2.32,0-3.76-1.11-3.76-3.55V9.27h-2.76V7.45H461V4.62l2.25-.72V7.45h3.24Z"></path><path class="cls-1" d="M472.89,4.71h-2.54V2.17h2.54Zm-2.4,2.74h2.26V19.69h-2.26Z"></path><path class="cls-1" d="M486,9.51A6.57,6.57,0,0,0,483.5,9c-2.52,0-3.94,2.26-3.94,4.59,0,2.18,1.18,4.58,4.08,4.58a4.79,4.79,0,0,0,2.43-.69l.17,2a6.8,6.8,0,0,1-2.84.51,6.2,6.2,0,0,1-6.24-6.41,6,6,0,0,1,6.24-6.41,8.6,8.6,0,0,1,2.74.48Z"></path><path class="cls-1" d="M487.33,17.29a6,6,0,0,0,2.81.86c1,0,2.3-.43,2.3-1.75,0-2.23-5.3-2-5.3-5.47,0-2.55,1.89-3.77,4.32-3.77a9.61,9.61,0,0,1,2.81.48l-.19,2A6.68,6.68,0,0,0,491.7,9c-1.15,0-2.16.48-2.16,1.49,0,2.5,5.3,1.78,5.3,5.69,0,2.62-2.08,3.82-4.27,3.82a7.06,7.06,0,0,1-3.36-.67Z"></path><path class="cls-1" d="M214.42,38.31a7.85,7.85,0,0,1,4-1.15c3.5,0,4.92,1.73,4.92,5.06v5.07a19.5,19.5,0,0,0,.09,2.4h-2.11V48.11h-.05A4.56,4.56,0,0,1,217.52,50c-2.64,0-4.49-1.15-4.49-3.82,0-3.07,3.36-4,5.69-4,.89,0,1.51,0,2.4,0,0-2.12-.77-3.2-3-3.2a5.77,5.77,0,0,0-3.56,1.25Zm6.7,5.55c-.48,0-1,0-1.44,0-1.22,0-4.25.19-4.25,2.35a2.15,2.15,0,0,0,2.28,2,3.09,3.09,0,0,0,3.41-3.21Z"></path><path class="cls-1" d="M228.29,37.45h2.18v1.94h.05a4.4,4.4,0,0,1,4-2.23c3.17,0,4.58,2,4.58,5.26v7.27h-2.25V43.35c0-2.85-.63-4.25-2.6-4.37-2.56,0-3.72,2.07-3.72,5.05v5.66h-2.25Z"></path><path class="cls-1" d="M252.71,48h-.05a4.91,4.91,0,0,1-4.17,2c-3.7,0-5.26-3.29-5.26-6.63s1.73-6.19,5.28-6.19a4.37,4.37,0,0,1,4.06,2h.05V31.69h2.25v18h-2.16Zm-3.69.19c2.54,0,3.6-2.52,3.6-4.56,0-2.28-1.18-4.61-3.63-4.61s-3.41,2.31-3.36,4.54C245.58,45.44,246.59,48.15,249,48.15Z"></path><path class="cls-1" d="M268,32.94h5c5,0,8.93,3.07,8.93,8.23,0,5.61-3.41,8.52-8.93,8.52h-5Zm2.4,14.64H273c4.12,0,6.4-2,6.4-6.32a5.84,5.84,0,0,0-6.12-6.21h-2.81Z"></path><path class="cls-1" d="M286.57,38.31a7.85,7.85,0,0,1,4-1.15c3.5,0,4.92,1.73,4.92,5.06v5.07a22,22,0,0,0,.09,2.4h-2.11V48.11h-.05A4.53,4.53,0,0,1,289.67,50c-2.64,0-4.49-1.15-4.49-3.82,0-3.07,3.36-4,5.69-4,.89,0,1.51,0,2.4,0,0-2.12-.77-3.2-3-3.2a5.77,5.77,0,0,0-3.56,1.25Zm6.7,5.55c-.48,0-1,0-1.44,0-1.22,0-4.25.19-4.25,2.35a2.15,2.15,0,0,0,2.28,2,3.09,3.09,0,0,0,3.41-3.21Z"></path><path class="cls-1" d="M307.4,39.27h-3.24V46a1.94,1.94,0,0,0,1.9,2.18,2.77,2.77,0,0,0,1.54-.43v1.92a7,7,0,0,1-1.92.34c-2.33,0-3.77-1.11-3.77-3.55V39.27h-2.76V37.45h2.76V34.62l2.25-.72v3.55h3.24Z"></path><path class="cls-1" d="M311,38.31a7.81,7.81,0,0,1,4-1.15c3.51,0,4.92,1.73,4.92,5.06v5.07a18.61,18.61,0,0,0,.1,2.4h-2.11V48.11h-.05A4.56,4.56,0,0,1,314.09,50c-2.64,0-4.49-1.15-4.49-3.82,0-3.07,3.36-4,5.69-4,.88,0,1.51,0,2.4,0,0-2.12-.77-3.2-3-3.2a5.74,5.74,0,0,0-3.55,1.25Zm6.7,5.55c-.48,0-1,0-1.44,0-1.23,0-4.25.19-4.25,2.35a2.15,2.15,0,0,0,2.28,2,3.09,3.09,0,0,0,3.41-3.21Z"></path><path class="cls-1" d="M340.14,35.46a7.43,7.43,0,0,0-3.15-.7c-1.34,0-2.93.48-2.93,2.23,0,3.22,7.2,2.47,7.2,8,0,3.57-2.76,5-6.12,5a11.21,11.21,0,0,1-3.43-.7l.24-2.23a10.12,10.12,0,0,0,3.48.82c1.37,0,3.29-.77,3.29-2.74,0-3.75-7.2-2.71-7.2-7.92,0-3,2.35-4.56,5.37-4.56a11.11,11.11,0,0,1,3.58.6Z"></path><path class="cls-1" d="M352.18,39.51a6.49,6.49,0,0,0-2.44-.53c-2.52,0-3.94,2.26-3.94,4.59s1.18,4.58,4.08,4.58a4.73,4.73,0,0,0,2.42-.69l.17,2a6.73,6.73,0,0,1-2.83.51,6.19,6.19,0,0,1-6.24-6.41,6,6,0,0,1,6.24-6.41,8.6,8.6,0,0,1,2.74.48Z"></path><path class="cls-1" d="M357.85,34.71H355.3V32.17h2.55Zm-2.4,2.74h2.25V49.69h-2.25Z"></path><path class="cls-1" d="M371.31,49.19a9.4,9.4,0,0,1-3.86.79c-4.35,0-6.34-2.64-6.34-6.63,0-3.62,2.28-6.19,5.74-6.19,4.08,0,5.4,3,5.4,6.91h-8.74a4,4,0,0,0,4,4.08,7.19,7.19,0,0,0,3.77-1.22Zm-1.46-6.8c0-1.87-1.11-3.41-3.05-3.41-2.21,0-3.12,1.83-3.29,3.41Z"></path><path class="cls-1" d="M375.37,37.45h2.18v1.94h.05a4.4,4.4,0,0,1,4-2.23c3.17,0,4.58,2,4.58,5.26v7.27h-2.25V43.35c0-2.85-.63-4.25-2.6-4.37-2.56,0-3.72,2.07-3.72,5.05v5.66h-2.25Z"></path><path class="cls-1" d="M397.9,39.51a6.49,6.49,0,0,0-2.44-.53c-2.52,0-3.94,2.26-3.94,4.59s1.18,4.58,4.08,4.58a4.73,4.73,0,0,0,2.42-.69l.17,2a6.73,6.73,0,0,1-2.83.51,6.19,6.19,0,0,1-6.24-6.41,6,6,0,0,1,6.24-6.41,8.6,8.6,0,0,1,2.74.48Z"></path><path class="cls-1" d="M410.26,49.19a9.35,9.35,0,0,1-3.86.79c-4.34,0-6.34-2.64-6.34-6.63,0-3.62,2.28-6.19,5.74-6.19,4.08,0,5.4,3,5.4,6.91h-8.74a4,4,0,0,0,4,4.08,7.19,7.19,0,0,0,3.76-1.22Zm-1.46-6.8c0-1.87-1.1-3.41-3.05-3.41-2.21,0-3.12,1.83-3.29,3.41Z"></path><path class="cls-1" d="M213.92,62.94h8.9v2.11h-6.5V70h6.22v2.11h-6.22v7.63h-2.4Z"></path><path class="cls-1" d="M226.52,68.31a7.81,7.81,0,0,1,4-1.15c3.51,0,4.92,1.73,4.92,5.06v5.07a18.61,18.61,0,0,0,.1,2.4h-2.11V78.11h-.05A4.56,4.56,0,0,1,229.62,80c-2.64,0-4.49-1.15-4.49-3.82,0-3.07,3.36-4,5.69-4,.88,0,1.51,0,2.4.05,0-2.12-.77-3.2-3-3.2a5.74,5.74,0,0,0-3.55,1.25Zm6.7,5.55c-.48,0-1,0-1.44,0-1.23,0-4.25.19-4.25,2.35a2.15,2.15,0,0,0,2.28,2,3.09,3.09,0,0,0,3.41-3.21Z"></path><path class="cls-1" d="M247.16,69.51a6.57,6.57,0,0,0-2.45-.53c-2.52,0-3.93,2.26-3.93,4.59s1.17,4.58,4.08,4.58a4.78,4.78,0,0,0,2.42-.69l.17,2a6.78,6.78,0,0,1-2.83.51,6.2,6.2,0,0,1-6.25-6.41,6,6,0,0,1,6.25-6.41,8.54,8.54,0,0,1,2.73.48Z"></path><path class="cls-1" d="M261,79.69h-2.18v-2h0a4.4,4.4,0,0,1-4,2.24c-3.17,0-4.59-2-4.59-5.26V67.45h2.26v6.33c0,2.86.62,4.25,2.59,4.37,2.57,0,3.72-2.06,3.72-5V67.45H261Z"></path><path class="cls-1" d="M265.18,61.69h2.26v18h-2.26Z"></path><path class="cls-1" d="M278.17,69.27h-3.24V76a1.93,1.93,0,0,0,1.89,2.18,2.77,2.77,0,0,0,1.54-.43v1.92a7.26,7.26,0,0,1-1.92.34c-2.33,0-3.77-1.11-3.77-3.55V69.27h-2.76V67.45h2.76V64.62l2.26-.72v3.55h3.24Z"></path><path class="cls-1" d="M280.77,83.59a3.58,3.58,0,0,0,1.05.19c2,0,2.69-2.79,2.69-3a6.91,6.91,0,0,0-.43-1.29L279.93,68h2.47l3.29,10.13h0L289.09,68h2.28l-4.51,12.51c-.84,2.35-1.73,5.06-4.7,5.06a6.92,6.92,0,0,1-1.54-.17Z"></path><path class="cls-1" d="M307.21,67.16a6,6,0,0,1,6.22,6.41,6.23,6.23,0,1,1-12.46,0A6,6,0,0,1,307.21,67.16Zm0,11c2.64,0,3.82-2.4,3.82-4.58S309.61,69,307.21,69s-3.84,2.26-3.84,4.59S304.55,78.15,307.21,78.15Z"></path><path class="cls-1" d="M317.31,69.27h-2.88V67.45h2.88V66.32c0-3,.77-4.92,4.1-4.92a9.61,9.61,0,0,1,1.52.14l-.1,1.83a3.48,3.48,0,0,0-1.08-.15c-1.95,0-2.19,1.25-2.19,2.91v1.32h3.24v1.82h-3.24V79.69h-2.25Z"></path><path class="cls-1" d="M340.14,65.46a7.43,7.43,0,0,0-3.15-.7c-1.34,0-2.93.48-2.93,2.23,0,3.22,7.2,2.47,7.2,8,0,3.57-2.76,5-6.12,5a11.21,11.21,0,0,1-3.43-.7l.24-2.23a10.12,10.12,0,0,0,3.48.82c1.37,0,3.29-.77,3.29-2.74,0-3.75-7.2-2.71-7.2-7.92,0-3,2.35-4.56,5.37-4.56a11.11,11.11,0,0,1,3.58.6Z"></path><path class="cls-1" d="M352.18,69.51a6.49,6.49,0,0,0-2.45-.53c-2.51,0-3.93,2.26-3.93,4.59s1.18,4.58,4.08,4.58a4.73,4.73,0,0,0,2.42-.69l.17,2a6.73,6.73,0,0,1-2.83.51,6.19,6.19,0,0,1-6.24-6.41,6,6,0,0,1,6.24-6.41,8.6,8.6,0,0,1,2.74.48Z"></path><path class="cls-1" d="M357.85,64.71H355.3V62.17h2.55Zm-2.4,2.74h2.25V79.69h-2.25Z"></path><path class="cls-1" d="M371.31,79.19a9.4,9.4,0,0,1-3.86.79c-4.35,0-6.34-2.64-6.34-6.63,0-3.62,2.28-6.19,5.74-6.19,4.08,0,5.4,3,5.4,6.91h-8.74a4,4,0,0,0,4,4.08,7.19,7.19,0,0,0,3.77-1.22Zm-1.46-6.8c0-1.87-1.11-3.41-3.05-3.41-2.21,0-3.12,1.83-3.29,3.41Z"></path><path class="cls-1" d="M375.37,67.45h2.18v1.94h.05a4.4,4.4,0,0,1,4-2.23c3.17,0,4.58,2,4.58,5.26v7.27h-2.25V73.35c0-2.85-.63-4.25-2.6-4.37-2.57,0-3.72,2.07-3.72,5v5.66h-2.25Z"></path><path class="cls-1" d="M397.9,69.51a6.49,6.49,0,0,0-2.44-.53c-2.52,0-3.94,2.26-3.94,4.59s1.17,4.58,4.08,4.58a4.73,4.73,0,0,0,2.42-.69l.17,2a6.73,6.73,0,0,1-2.83.51,6.19,6.19,0,0,1-6.24-6.41,6,6,0,0,1,6.24-6.41,8.6,8.6,0,0,1,2.74.48Z"></path><path class="cls-1" d="M410.26,79.19a9.35,9.35,0,0,1-3.86.79c-4.35,0-6.34-2.64-6.34-6.63,0-3.62,2.28-6.19,5.74-6.19,4.08,0,5.4,3,5.4,6.91h-8.74a4,4,0,0,0,4,4.08,7.19,7.19,0,0,0,3.77-1.22Zm-1.46-6.8c0-1.87-1.11-3.41-3.05-3.41-2.21,0-3.12,1.83-3.29,3.41Z"></path><polygon class="cls-1" points="71.51 47.3 73.13 47.3 76.8 54.01 76.83 54.01 76.83 47.3 78.02 47.3 78.02 55.63 76.5 55.63 72.72 48.77 72.69 48.77 72.69 55.63 71.51 55.63 71.51 47.3"></polygon><path class="cls-1" d="M80.38,50.92a2.84,2.84,0,0,1,1.76-.61c1.13,0,1.51.53,1.51,1.59-.44,0-.76,0-1.19,0-1.16,0-2.83.48-2.83,2,0,1.33.91,1.91,2.23,1.91a2.26,2.26,0,0,0,1.89-.93h0v.78h1.06a6.41,6.41,0,0,1-.06-1.19V51.92c0-1.65-.7-2.53-2.45-2.53a3.79,3.79,0,0,0-2,.58l.06,1m3.27,2.35A1.53,1.53,0,0,1,82,54.87a1.08,1.08,0,0,1-1.14-1c0-1.06,1.5-1.15,2.12-1.15l.71,0Z"></path><path class="cls-1" d="M89.91,50.45H88.29v3.33a1,1,0,0,0,.95,1.09,1.35,1.35,0,0,0,.76-.22v1a3.47,3.47,0,0,1-1,.16A1.64,1.64,0,0,1,87.17,54V50.45H85.8v-.91h1.37V48.13l1.12-.36v1.77h1.62v.91"></path><path class="cls-1" d="M91.39,48.19h1.27V46.92H91.39Zm.07,7.44h1.12V49.55H91.46Z"></path><path class="cls-1" d="M94.24,52.59a3.1,3.1,0,1,0,6.2,0,3.1,3.1,0,1,0-6.2,0m1.18,0a1.94,1.94,0,1,1,3.82,0,1.94,1.94,0,1,1-3.82,0"></path><path class="cls-1" d="M101.94,49.55H103v1h0a2.21,2.21,0,0,1,2-1.12c1.58,0,2.29,1,2.29,2.63v3.61H106.2V52.48c0-1.42-.3-2.11-1.29-2.17-1.27,0-1.85,1-1.85,2.51v2.81h-1.12V49.55"></path><path class="cls-1" d="M109.58,50.92a2.87,2.87,0,0,1,1.76-.61c1.13,0,1.52.53,1.52,1.59-.45,0-.75,0-1.2,0-1.16,0-2.84.48-2.84,2,0,1.33.93,1.91,2.24,1.91a2.24,2.24,0,0,0,1.89-.93h0v.78H114a7.55,7.55,0,0,1-.06-1.19V51.92c0-1.65-.69-2.53-2.44-2.53a3.86,3.86,0,0,0-2,.58l.06,1m3.28,2.35a1.54,1.54,0,0,1-1.7,1.6,1.08,1.08,0,0,1-1.14-1c0-1.06,1.51-1.15,2.11-1.15l.73,0Z"></path><rect class="cls-1" x="116.02" y="46.67" width="1.12" height="8.96"></rect><path class="cls-1" d="M128.78,52.18c0,2.34-1.18,3.6-3.24,3.6s-3.24-1.26-3.24-3.6V47.3h1.2V52c0,1.6.5,2.7,2,2.7s2-1.1,2-2.7V47.3h1.2v4.88"></path><path class="cls-1" d="M130.8,49.55h1.1v1h0a2.2,2.2,0,0,1,2-1.12c1.58,0,2.28,1,2.28,2.63v3.61h-1.12V52.48c0-1.42-.31-2.11-1.28-2.17-1.28,0-1.86,1-1.86,2.51v2.81H130.8V49.55"></path><path class="cls-1" d="M138.18,46.92h1.27v1.27h-1.27Zm.07,2.62h1.12v6.09h-1.12Z"></path><polygon class="cls-1" points="144.12 55.63 142.79 55.63 140.61 49.55 141.84 49.55 143.48 54.52 143.5 54.52 145.18 49.55 146.31 49.55 144.12 55.63"></polygon><path class="cls-1" d="M152.07,54.26a3.6,3.6,0,0,1-1.87.61,2,2,0,0,1-2-2h4.36c0-2-.66-3.45-2.69-3.45A2.83,2.83,0,0,0,147,52.48c0,2,1,3.3,3.16,3.3a4.76,4.76,0,0,0,1.92-.39V54.26M148.18,52a1.7,1.7,0,0,1,1.65-1.69A1.54,1.54,0,0,1,151.34,52Z"></path><path class="cls-1" d="M154,49.55h1.05v.94h0a1.86,1.86,0,0,1,1.59-1.1,2.52,2.52,0,0,1,.73.1v1a1.46,1.46,0,0,0-.61-.11c-1,0-1.67.95-1.67,2.49v2.76H154V49.55"></path><path class="cls-1" d="M158.24,54.44a2.87,2.87,0,0,0,1.39.43c.5,0,1.15-.22,1.15-.87,0-1.12-2.64-1-2.64-2.72,0-1.27.94-1.88,2.14-1.88a5.2,5.2,0,0,1,1.41.23l-.11,1a3.09,3.09,0,0,0-1.18-.31c-.57,0-1.07.23-1.07.73,0,1.24,2.64.9,2.64,2.83a1.92,1.92,0,0,1-2.13,1.91,3.7,3.7,0,0,1-1.67-.33l.07-1"></path><path class="cls-1" d="M163.4,46.92h1.26v1.27H163.4Zm.08,2.62h1.12v6.09h-1.12Z"></path><path class="cls-1" d="M169.88,50.45h-1.6v3.33a1,1,0,0,0,.94,1.09,1.38,1.38,0,0,0,.77-.22v1a3.62,3.62,0,0,1-1,.16c-1.16,0-1.88-.55-1.88-1.77V50.45h-1.36v-.91h1.36V48.13l1.13-.36v1.77h1.6v.91"></path><path class="cls-1" d="M170.85,57.29a1.94,1.94,0,0,0,.52.09c1,0,1.35-1.39,1.35-1.51a3,3,0,0,0-.23-.64l-2.07-5.68h1.24l1.64,5h0l1.66-5h1.14l-2.25,6.22c-.4,1.16-.86,2.52-2.33,2.52a4.06,4.06,0,0,1-.77-.09l.08-.91"></path><path class="cls-1" d="M71,66.7a3.1,3.1,0,1,0,6.2,0,3.1,3.1,0,1,0-6.2,0m1.2,0a1.93,1.93,0,1,1,3.8,0,1.93,1.93,0,1,1-3.8,0"></path><path class="cls-1" d="M79.44,64.57H78v-.91h1.43V63.1c0-1.48.38-2.45,2-2.45a5.47,5.47,0,0,1,.75.07l0,.9a2,2,0,0,0-.54-.07c-1,0-1.08.62-1.08,1.45v.66h1.61v.91H80.56v5.18H79.44V64.57"></path><path class="cls-1" d="M90.24,62.67a3.73,3.73,0,0,0-1.58-.35c-.66,0-1.44.24-1.44,1.11,0,1.6,3.57,1.24,3.57,4,0,1.77-1.37,2.49-3,2.49A5.66,5.66,0,0,1,86,69.55l.12-1.11a5.24,5.24,0,0,0,1.74.41,1.49,1.49,0,0,0,1.63-1.37c0-1.87-3.58-1.34-3.58-3.94,0-1.48,1.17-2.27,2.67-2.27a5.59,5.59,0,0,1,1.78.3l-.16,1.1"></path><path class="cls-1" d="M92.38,61h1.27V62.3H92.38Zm.08,2.62h1.12v6.09H92.46Z"></path><path class="cls-1" d="M95.64,63.66h1.08v1h0a2.19,2.19,0,0,1,2-1.12c1.59,0,2.3,1,2.3,2.63v3.61H99.89V66.6c0-1.42-.31-2.11-1.28-2.18-1.28,0-1.85,1-1.85,2.51v2.82H95.64V63.66"></path><path class="cls-1" d="M108.32,63.66h-1v.91h0a2,2,0,0,0-2-1.06c-1.83,0-2.71,1.68-2.71,3.25s.86,3,2.6,3a2.52,2.52,0,0,0,2-1h0v.61a1.83,1.83,0,0,1-1.88,2.08A4.89,4.89,0,0,1,103.1,71L103,72a6.1,6.1,0,0,0,2.19.43c2.18,0,3.14-1.08,3.14-2.92V63.66m-2.91,5.19c-1,0-1.69-1-1.69-2.16s.56-2.27,1.69-2.27,1.78,1.09,1.78,2.36a1.9,1.9,0,0,1-1.78,2.07"></path><path class="cls-1" d="M110.58,65a2.91,2.91,0,0,1,1.76-.62c1.13,0,1.51.54,1.51,1.59-.44,0-.75,0-1.2,0-1.16,0-2.83.48-2.83,2,0,1.32.92,1.9,2.24,1.9A2.29,2.29,0,0,0,114,69h0v.79H115a11.53,11.53,0,0,1,0-1.2V66c0-1.66-.71-2.51-2.45-2.51a3.82,3.82,0,0,0-2,.57l.06,1m3.27,2.34a1.55,1.55,0,0,1-1.7,1.61A1.07,1.07,0,0,1,111,68c0-1.08,1.5-1.18,2.11-1.18.24,0,.48,0,.72,0Z"></path><path class="cls-1" d="M116.87,72.26H118V68.91h0a2.2,2.2,0,0,0,2,1c1.83,0,2.61-1.62,2.61-3.29s-.86-3.09-2.62-3.09a2.45,2.45,0,0,0-2.07,1h0v-.86h-1.08v8.6m4.6-5.58c0,1-.48,2.31-1.69,2.31S118,67.74,118,66.72s.59-2.3,1.8-2.3,1.7,1.16,1.68,2.26"></path><path class="cls-1" d="M123.76,66.7a3.1,3.1,0,1,0,6.2,0,3.1,3.1,0,1,0-6.2,0m1.2,0a1.94,1.94,0,1,1,3.81,0,1.94,1.94,0,1,1-3.81,0"></path><path class="cls-1" d="M131.46,63.66h1v1h0a1.83,1.83,0,0,1,1.59-1.1,4.79,4.79,0,0,1,.75.08v1a1.63,1.63,0,0,0-.63-.12c-1,0-1.66,1-1.66,2.49v2.77h-1.13V63.66"></path><path class="cls-1" d="M140.79,68.38a3.74,3.74,0,0,1-1.89.61,2,2,0,0,1-2-2h4.34c0-2-.65-3.44-2.69-3.44a2.83,2.83,0,0,0-2.84,3.09c0,2,1,3.3,3.15,3.3a4.62,4.62,0,0,0,1.93-.4V68.38m-3.89-2.27a1.7,1.7,0,0,1,1.63-1.69,1.55,1.55,0,0,1,1.53,1.69Z"></path><path class="cls-1" d="M148.71,30.68c2.29,2.11,6.79,4,12.31,4.12,4.82.08,8.7-1.37,8.94-5.38.52-8.66-21.69-5.19-20.82-19.81.42-7.32,7.69-9.74,15.51-9.6a27.38,27.38,0,0,1,10.8,2.25v5.2a19.61,19.61,0,0,0-10.05-3.24c-5-.09-8.92.82-9,4.45-.12,7.58,22.28,5.76,21.42,20.26-.47,8.16-8.42,10.67-16.72,10.52-4.78-.07-9.45-1-12.4-2.55V30.68"></path><path class="cls-1" d="M127.71,39.49c-10.32,0-16.26-4.63-16.26-14.16V1.13h7.73v24.2c0,5.92,2.85,9.52,8.53,9.52s8.51-3.6,8.51-9.52V1.13H144v24.2c0,9.53-5.94,14.16-16.25,14.16"></path><path class="cls-1" d="M98.88,1.13V28.38L81.16,3.06a4.65,4.65,0,0,0-3.77-1.93H71.52V38.3h5.16V11l17.7,25.25a4.65,4.65,0,0,0,3.83,2H104V1.13H98.88"></path><path class="cls-1" d="M62.65,39.75V1.29H0V40.07C0,41.88.38,51.5,8.12,63.69a44,44,0,0,0,23,17.6l.22,0,.21,0c.58-.17,14.56-4.28,23-17.6s8.13-23.51,8.12-23.94"></path><path class="cls-2" d="M53.17,62.53c-7.59,12-20.18,16.34-22,16.91-1.73-.57-14.29-4.93-21.88-16.91S1.46,40.94,1.46,39.63V25.86h59.6V39.61c0,1.34-.28,10.94-7.89,22.92"></path><path class="cls-3" d="M43.73,31.47h0Z"></path><path class="cls-4" d="M29.34,5.72a35.81,35.81,0,0,0-5.71-.47,15.9,15.9,0,0,0-5.54,1.1,15.91,15.91,0,0,0-5.55-1.1,35.76,35.76,0,0,0-5.7.47l-.34.06V22l.5-.11a26.78,26.78,0,0,1,5.24-.46,19.17,19.17,0,0,1,5.71,1l.14,0,.14,0a19.17,19.17,0,0,1,5.71-1,26.24,26.24,0,0,1,5.23.46l.52.11V5.78l-.35-.06"></path><path class="cls-2" d="M17.7,7.1a15.1,15.1,0,0,0-5.14-1,35.79,35.79,0,0,0-5.2.4V18.76a30.56,30.56,0,0,1,4.9-.38,19.67,19.67,0,0,1,5.44.87V7.1"></path><path class="cls-2" d="M23.66,6.1a15.29,15.29,0,0,0-5.17,1V19.25A19.71,19.71,0,0,1,24,18.38a29.42,29.42,0,0,1,4.91.39V6.5a37.67,37.67,0,0,0-5.21-.4"></path><path class="cls-1" d="M9.66,8.15a.5.5,0,0,0-.38.62.61.61,0,0,0,.73.32,20.26,20.26,0,0,1,2.89-.27,8.06,8.06,0,0,1,2.57.55.61.61,0,0,0,.73-.29.49.49,0,0,0-.33-.64,9.55,9.55,0,0,0-3-.61,19.55,19.55,0,0,0-3.24.32"></path><path class="cls-1" d="M9.66,10.59a.49.49,0,0,0-.38.61.61.61,0,0,0,.73.33,19.56,19.56,0,0,1,2.89-.28,8.06,8.06,0,0,1,2.57.55.6.6,0,0,0,.73-.29.48.48,0,0,0-.33-.63,9.14,9.14,0,0,0-3-.62,18,18,0,0,0-3.24.33"></path><path class="cls-1" d="M9.66,13a.5.5,0,0,0-.38.62A.61.61,0,0,0,10,14a18.15,18.15,0,0,1,2.89-.28,8.06,8.06,0,0,1,2.57.55A.6.6,0,0,0,16.2,14a.48.48,0,0,0-.33-.64,9.43,9.43,0,0,0-3-.62A19,19,0,0,0,9.66,13"></path><path class="cls-1" d="M9.66,15.46a.49.49,0,0,0-.38.61.61.61,0,0,0,.73.33,19.56,19.56,0,0,1,2.89-.28,8.37,8.37,0,0,1,2.57.55.59.59,0,0,0,.73-.28.48.48,0,0,0-.33-.64,9.14,9.14,0,0,0-3-.62,19,19,0,0,0-3.24.33"></path><path class="cls-1" d="M26.61,8.15a.49.49,0,0,1,.38.62.6.6,0,0,1-.71.32,20.92,20.92,0,0,0-2.91-.27,7.89,7.89,0,0,0-2.56.55.62.62,0,0,1-.74-.29.49.49,0,0,1,.33-.64,9.55,9.55,0,0,1,3-.61,19.55,19.55,0,0,1,3.24.32"></path><path class="cls-1" d="M26.61,10.59a.49.49,0,0,1,.38.61.6.6,0,0,1-.71.33,20.19,20.19,0,0,0-2.91-.28,7.89,7.89,0,0,0-2.56.55.61.61,0,0,1-.74-.29.48.48,0,0,1,.33-.63,9.14,9.14,0,0,1,3-.62,18,18,0,0,1,3.24.33"></path><path class="cls-1" d="M26.61,13a.49.49,0,0,1,.38.62.6.6,0,0,1-.71.33,18.72,18.72,0,0,0-2.91-.28,7.89,7.89,0,0,0-2.56.55.61.61,0,0,1-.74-.29.48.48,0,0,1,.33-.64,9.43,9.43,0,0,1,3-.62,19,19,0,0,1,3.24.33"></path><path class="cls-1" d="M26.61,15.46a.48.48,0,0,1,.38.61.6.6,0,0,1-.71.33,20.19,20.19,0,0,0-2.91-.28,8.19,8.19,0,0,0-2.56.55.6.6,0,0,1-.74-.28.48.48,0,0,1,.33-.64,9.14,9.14,0,0,1,3-.62,19,19,0,0,1,3.24.33"></path><path class="cls-1" d="M58.36,36.93a2.92,2.92,0,0,0-1.63-2c-2.08-1.11-4.79-.34-7.17.47a18.9,18.9,0,0,1-4.37,1.11c-1.53.23-6.68.9-8.3-.44a1.59,1.59,0,0,1-.49-.89,2.31,2.31,0,0,1,.4-1.44c.41-.46,1.37-.67,2.93-.67l4,.07a4.21,4.21,0,0,0,2.51,1.17,12.12,12.12,0,0,0,5.4-.33,2.5,2.5,0,0,1-.86-.39.75.75,0,0,1-.31-.64,3.29,3.29,0,0,0,1.39.25,10,10,0,0,0,2.46-.76,5.36,5.36,0,0,1,2,0,4.58,4.58,0,0,0-1.92-1.22,6.67,6.67,0,0,0-2.17.07,3.1,3.1,0,0,0,.67-.47,1.36,1.36,0,0,0,.34-.69,6.25,6.25,0,0,1-2.32.38c-1.17-.06-1.08-.48-3.34-.54a5.93,5.93,0,0,0-3.72,1.46c-1.83-.11-3.27-.18-4.12-.18-2.34,0-3.67.38-4.5,1.28a3.63,3.63,0,0,0-.89,2.87,3.22,3.22,0,0,0,1.2,2.26c2.18,1.79,8,1.24,10.08.88a23.78,23.78,0,0,0,4.34-1l.08,0c1-.36,4.19-1.41,5.51-.71a1.29,1.29,0,0,1,.56.82,1.92,1.92,0,0,1,.08.5,1,1,0,0,1-.26.71c-1.2,1.48-5.73,1.72-7.7,1.83A15,15,0,0,0,45,40.23c-1.17,0-2.16.06-3.18.14a33.27,33.27,0,0,1-7.09-.08,24.91,24.91,0,0,1-4-.76,2.23,2.23,0,0,0-.63-1.24c.77.25,1.78-.61,2.07-1,0,0-1.38-.4-1.46-1.3,0,0,1,.08,1.38-1.26-1-.53-.67-.72-1.14-1.38a2,2,0,0,0-1.75-.86,1.48,1.48,0,0,0,.66-.16c.41-.22.71-.8,1.13-.77-.85-1.34-3.13-1.51-4.09-1.23.25-.3.62-.64.63-1.05-1.26.35-2.5-.31-3.77-.07a2.19,2.19,0,0,0-2,1.63H21.7a2.21,2.21,0,0,0-2-1.63c-1.28-.24-2.52.42-3.79.07,0,.41.39.75.63,1.05-.94-.28-3.23-.11-4.08,1.23.42,0,.71.55,1.14.77a1.08,1.08,0,0,0,.65.16,2,2,0,0,0-1.75.86c-.47.66-.16.85-1.14,1.38.4,1.34,1.39,1.24,1.39,1.26-.09.9-1.47,1.27-1.47,1.3.28.43,1.3,1.29,2.07,1a2,2,0,0,0-.59,2A13.51,13.51,0,0,1,10.29,38a21.59,21.59,0,0,1-.78-2.31L9.3,35l-.1-.38c-.32-1.14-.6-2.09-1.14-2.22a2.27,2.27,0,0,0-.76-.07,1.62,1.62,0,0,0-.73-.67,1.33,1.33,0,0,0-.89,0,2.21,2.21,0,0,1,.65.7,1.15,1.15,0,0,1,.09.26l-.29.2,0,0L5.85,33l-.12,0a1.35,1.35,0,0,0-.9.11,2.71,2.71,0,0,1,.59.39A2.07,2.07,0,0,0,5,34.65c0,.05,0,.1,0,.15a1.4,1.4,0,0,0-.82.26,2.45,2.45,0,0,1,.86.43l.09.1,0,0a1.12,1.12,0,0,0-.18.63,2.07,2.07,0,0,0,.7,1.45l1.17,1A10.76,10.76,0,0,0,8,40.82c.09.12.75,1.25,1.44,2.44a4.76,4.76,0,0,1,.28.49c.16.73.32,1.64.4,2.35a15.55,15.55,0,0,1,0,2.73,1.82,1.82,0,0,0,1.22-.58,5.75,5.75,0,0,1,.27,1.91,16.73,16.73,0,0,1-.24,1.8,9,9,0,0,0,1.42-1,5.33,5.33,0,0,0,.81-1c.68.43,2.6-.25,3.56-.64a9.14,9.14,0,0,0,.8,1.28c.14-.58.77-.86,1-1.32h.27a4.25,4.25,0,0,0,.45,2.4,14,14,0,0,0,1.6,2.2c-.23,1.06-.67,3-1.11,4.61a15.32,15.32,0,0,1-1.17,3.16c-.68,0-1.94.08-2.34.06a2.65,2.65,0,0,0-2.1.6.35.35,0,0,0-.08.1,1.66,1.66,0,0,0-.93.37,1.43,1.43,0,0,0-.43.79,2.45,2.45,0,0,1,.92-.29h.09v.08a1.12,1.12,0,0,0,.14.42l-.17.16a1.31,1.31,0,0,0-.36.82,2.37,2.37,0,0,1,.89-.35,6.16,6.16,0,0,0,.4.59l-.05.06a1.42,1.42,0,0,0-.3.84,2.5,2.5,0,0,1,.75-.39c.12.13.26.26.37.37.57.5,2,.17,3.81-.31l1.12-.27a2.23,2.23,0,0,0,1.65-1.06,3.74,3.74,0,0,0,.28-.74l.11-.32a8.76,8.76,0,0,1,.94-1.94s.5-.81,1.16-1.88c.59-.49,1.3-1,1.81-1.4.78-.52,2.34-1.32,2.34-1.32a1.76,1.76,0,0,0-1-.77,5.77,5.77,0,0,1,1.46-1.1,9.45,9.45,0,0,1,1.73-.51,3.08,3.08,0,0,0-.9-1.09,2.81,2.81,0,0,0,.7-.37,3.51,3.51,0,0,1,3.2-.57,1.3,1.3,0,0,0-.63-1.31,8.91,8.91,0,0,1,1.35-.45c.3.51.64,1.08.8,1.3a28,28,0,0,0,2.52,3.12s0,.05,0,.11a8,8,0,0,1-.66,1.84l-.21.47s-.83,2-1.07,2.53c-.49,0-1.89.12-2.38.09a2.58,2.58,0,0,0-2,.57,1,1,0,0,0-.14.17,1.44,1.44,0,0,0-1.34,1.26,2.45,2.45,0,0,1,.89-.35.54.54,0,0,1,.18,0,1.28,1.28,0,0,0,.16.43.84.84,0,0,0-.23.23,1.35,1.35,0,0,0-.3.85,2.21,2.21,0,0,1,.86-.43h0c.1.15.19.29.3.44,0,0-.06.08-.1.12a1.35,1.35,0,0,0-.3.85,2.32,2.32,0,0,1,.84-.44,2.52,2.52,0,0,0,.35.37c.54.49,1.73.2,3.32-.27l1.14-.3a2.18,2.18,0,0,0,1.62-1l.29-.65a7.49,7.49,0,0,1,.43-.89c.18-.29.37-.63.58-1s.51-.45.69-.58A19.43,19.43,0,0,1,43,58.16a1.1,1.1,0,0,0-.78-.61,4.63,4.63,0,0,1,1.13-.95,5.17,5.17,0,0,1,1.33-.42,5.93,5.93,0,0,0-1.07-.71A2.93,2.93,0,0,0,43,55.3a2.28,2.28,0,0,0-.42-.95c-.46-.71.21-2.22.68-3.07A20.58,20.58,0,0,0,44.61,53s2.31,2.51,2.82,3.08c-.1.4-.43,1.66-.93,3.06a26.85,26.85,0,0,1-1.17,2.58c-.56,0-1.82.09-2.28.07a2.65,2.65,0,0,0-2,.59,1.57,1.57,0,0,0-.17.21A1.45,1.45,0,0,0,40,63a1.34,1.34,0,0,0-.36.83,1.51,1.51,0,0,1,.89-.37h.07a2.09,2.09,0,0,0,.17.43.84.84,0,0,0-.23.23,1.44,1.44,0,0,0-.3.85,2.32,2.32,0,0,1,.86-.44h0c.12.18.26.37.39.55h0a1.4,1.4,0,0,0-.3.84,2.9,2.9,0,0,1,.7-.39,2.81,2.81,0,0,0,.29.3c.55.48,1.73.19,3.34-.27l1.13-.3a2.14,2.14,0,0,0,1.6-1c.15-.26.87-1.89,1-2.37.35-.86.74-1.72,1.12-2.53a6.5,6.5,0,0,1,.52-.41c.62-.44,2-1.21,2-1.21a1.08,1.08,0,0,0-.78-.62,7.46,7.46,0,0,1,1.06-.85,4.93,4.93,0,0,1,1.4-.49,6.27,6.27,0,0,0-1.11-.7,3.54,3.54,0,0,0-.93-.24.87.87,0,0,0-.56-.66,3.21,3.21,0,0,1-1.15-.94c-.7-.82-.8-2.38-.8-3.94v-1l0-1.5A14.39,14.39,0,0,0,49.53,43c2.29-.22,6.49-.68,8.21-2.78A3.42,3.42,0,0,0,58.51,38a4.41,4.41,0,0,0-.15-1.11"></path><path class="cls-4" d="M23.06,36.55l.32,2.88-1.57.86c0,.09,0,1,0,1a3.69,3.69,0,0,0,.63.37,1.79,1.79,0,0,0,1,.09l.13,0-.12.39h-.05a2.76,2.76,0,0,1-1.06,0,1.88,1.88,0,0,1-.67-.33h-.26a2.19,2.19,0,0,1-.68.33,2.82,2.82,0,0,1-1.07,0h-.05l-.11-.39.14,0a1.78,1.78,0,0,0,1-.09,3.92,3.92,0,0,0,.62-.37v-1l-1.59-1.12h2.83V35.38h2.52l-2,1.19m-4.83-1.21,2.07,0h.08l-.08,1.2Zm8-.13c.36-.26,1.22-1,.76-1.83s-1.6-.54-1.93-.4c0,0-2.52-1.12-2.56-1.11s-1,1.15-1,1.15-1-1.16-.95-1.15S18.08,32.94,18,33c-.32-.14-1.44-.51-1.92.4s.39,1.57.75,1.83h0l-.8,1.41s2.33,2.8,2.32,2.8,0,1.82,0,1.83.92.61,1,.64a7,7,0,0,0,.36,1.43,3.82,3.82,0,0,0,1.78.38h.07a3.8,3.8,0,0,0,1.79-.38,7.06,7.06,0,0,0,.35-1.43c.07,0,1-.64,1-.64V39.43S27,36.61,27,36.63l-.79-1.41Z"></path><path class="cls-4" d="M41.93,56c.31-.28.46-.43.46-.63a1.58,1.58,0,0,0-.33-.73,1.64,1.64,0,0,1-.24-.93,6.51,6.51,0,0,1,1-3l-.35-.47-.19-.13a5.54,5.54,0,0,1-1-1c0-.07-.09-.14-.12-.21a11.46,11.46,0,0,0-3.65.4,1.12,1.12,0,0,1,.6,1.08,7.18,7.18,0,0,0-2.61-.13c.26.46.54.91.67,1.09a25,25,0,0,0,2.46,3,.72.72,0,0,1,.18.51,6.52,6.52,0,0,1-.7,2.09l-.2.48L36.74,60.4h-.18c-.08,0-2,.12-2.62.09a2.28,2.28,0,0,0-1.52.34.79.79,0,0,1,0,.46.65.65,0,0,1-.31.38.73.73,0,0,1,0,.09,4.18,4.18,0,0,1,.74-.16.77.77,0,0,1,.12.62.82.82,0,0,1-.28.46.39.39,0,0,0,.08.1,4.07,4.07,0,0,1,.88-.21,1,1,0,0,1,.15.68.69.69,0,0,1-.22.37,6.92,6.92,0,0,0,2.65-.46l1.19-.3a1.57,1.57,0,0,0,1.22-.76l.27-.58a5.87,5.87,0,0,1,.47-1,24.06,24.06,0,0,0,1.17-2.25A10.9,10.9,0,0,1,41.93,56"></path><path class="cls-4" d="M19.15,48.67v0h0s0,0,0,0"></path><path class="cls-4" d="M16.69,45.39a2.56,2.56,0,0,1-1.91.92,3.27,3.27,0,0,0-.3-2.14c-.28-.6-1-1.79-1.27-2.47L13,41.17a16.9,16.9,0,0,1-3.19-2.83A13.55,13.55,0,0,1,9,35.85l-.21-.69-.11-.38A4.58,4.58,0,0,0,7.93,33a2,2,0,0,0-.33-.05h0s0,.34-.63.31a.72.72,0,0,1-.34-.1l-.14.1,0,0-.09.07a3.71,3.71,0,0,1,.58.7.73.73,0,0,1-.57.43.7.7,0,0,1-.56-.16,1,1,0,0,0,0-.27,1.39,1.39,0,0,0-.12.92,3.39,3.39,0,0,1,.83.65s0,.33-.47.56a.52.52,0,0,1-.46,0A1.44,1.44,0,0,0,6,37.31l1.25,1,0,.07a9.53,9.53,0,0,0,1.13,2c.1.12.47.75,1.51,2.53,1.37,2.37,3.45,5.93,4,6.53.21.19,1.61-.13,3-.7-.5-1.38-.07-2.23-.26-3.41"></path><path class="cls-4" d="M57.81,37.07a2.42,2.42,0,0,0-1.35-1.66c-1.86-1-4.44-.25-6.71.52a19.81,19.81,0,0,1-4.47,1.13c-2,.32-7,.89-8.75-.56a2.13,2.13,0,0,1-.7-1.28,2.92,2.92,0,0,1,.55-1.88c.54-.58,1.57-.85,3.35-.85,0,0,2.67,0,4.14.06l.31-.28-.3-.32c-1.85-.12-3.29-.19-4.13-.19-2.16,0-3.37.33-4.08,1.09a3.08,3.08,0,0,0-.75,2.44,2.63,2.63,0,0,0,1,1.86c1.85,1.53,7.28,1.18,9.62.77a24.56,24.56,0,0,0,4.25-1l.07,0c1.22-.41,4.42-1.48,6-.66a1.73,1.73,0,0,1,.85,1.16,1.85,1.85,0,0,1-.29,1.73c-1.37,1.67-5.77,1.91-8.15,2h-.09A15.33,15.33,0,0,0,45,40.79c-1.14,0-2.11.07-3.14.15a33.76,33.76,0,0,1-7.2-.09,23.31,23.31,0,0,1-3.93-.75,9.29,9.29,0,0,1-.46,1.6c-.22.67-1,1.86-1.27,2.47a3.13,3.13,0,0,0-.3,2.14,2.54,2.54,0,0,1-1.91-.92c-.25,1.63.66,2.61-1.28,5.22-.19-.79-1.28-1-1.18-1.94-.35.94.2,1.48-.57,3a12.31,12.31,0,0,1-1.87,2.46c-.24,1.09-.65,3-1.09,4.51a14,14,0,0,1-1.3,3.42l-.08.13-.15,0c-.63,0-2.08.07-2.55.06a2.51,2.51,0,0,0-1.48.28,1,1,0,0,1-.05.55.65.65,0,0,1-.37.31,1.39,1.39,0,0,0,.06.13,3.11,3.11,0,0,1,.83-.13,1,1,0,0,1,0,.78.66.66,0,0,1-.25.3l.12.17a4.22,4.22,0,0,1,1-.26,1,1,0,0,1,.07.81.45.45,0,0,1-.21.3,9.49,9.49,0,0,0,3.14-.5l1.17-.28a1.66,1.66,0,0,0,1.26-.8,6.37,6.37,0,0,0,.24-.62l.1-.33a9.61,9.61,0,0,1,1-2.06c1.19-1.9,4.71-7.66,4.86-8.12v-.09a7.19,7.19,0,0,0-.27-1.41L27.8,51l12.07-3.53c-.24-.39-.7-1.2-.7-1.2l.41-.38A15.62,15.62,0,0,1,41,47.07a11.17,11.17,0,0,1,1.26,1.77l.22.36c.49.77,1,1.34,1,1.35l0,0v0a12.78,12.78,0,0,0,1.58,2l3,3.31L48,56s-.37,1.57-1,3.27a27.79,27.79,0,0,1-1.28,2.8l-.08.14h-.15c-.59,0-2,.12-2.51.09a2.44,2.44,0,0,0-1.46.29.77.77,0,0,1,0,.56.77.77,0,0,1-.33.37s0,0,.06.07a4.16,4.16,0,0,1,.72-.16,1.07,1.07,0,0,1,.14.68.56.56,0,0,1-.27.42.83.83,0,0,0,.11.15,3.62,3.62,0,0,1,1-.27.9.9,0,0,1,.13.67.59.59,0,0,1-.26.39A9.45,9.45,0,0,0,45.39,65l1.18-.31a1.55,1.55,0,0,0,1.22-.77c.12-.19.77-1.69,1-2.28a49.72,49.72,0,0,1,2.46-5.16l.38-.6c.22-.34.42-.63.39-.83s0-.28-.28-.39a3.77,3.77,0,0,1-1.32-1.09c-1-1.15-1-3.38-.93-5.33V46.79a13.07,13.07,0,0,0-.62-4l-.11-.35.36,0c2.11-.19,6.51-.58,8.16-2.6a3,3,0,0,0,.51-2.78"></path><path class="cls-2" d="M46.43,14.39a5.64,5.64,0,0,1,.62,1.07c-.21,0-.42,0-.62,0a6,6,0,0,1-.61,0,4.36,4.36,0,0,1,.61-1.07"></path><path class="cls-4" d="M43.89,14.26A4,4,0,0,1,42.77,13h0a4.13,4.13,0,0,1,1.65.34,6.79,6.79,0,0,0-.55.94m-3.63-.42a6.77,6.77,0,0,0,3,3.11c0,.08,0,.15,0,.22A6.91,6.91,0,0,0,44.43,21a4.11,4.11,0,0,1-1.64.34,4.2,4.2,0,0,1-4.19-4.2,4.16,4.16,0,0,1,1.66-3.33m9.8-.86h0A4.13,4.13,0,0,1,49,14.26a7.13,7.13,0,0,0-.53-.94A4.1,4.1,0,0,1,50.06,13m-7.27-2.63-.52,0a4.16,4.16,0,0,1,4.16-3.65,4.21,4.21,0,0,1,4.16,3.66l-.53,0a6.76,6.76,0,0,0-3.62,1.05,6.85,6.85,0,0,0-3.65-1.05M49.61,17a6.8,6.8,0,0,0,3-3.12,4.16,4.16,0,0,1,1.67,3.34,4.2,4.2,0,0,1-4.19,4.2A4.08,4.08,0,0,1,48.42,21a6.73,6.73,0,0,0,1.2-3.86Zm-3.71.75.53,0,.52,0a4.29,4.29,0,0,1-.52,1.56,4.17,4.17,0,0,1-.53-1.57m7.34-6.55c0-.08,0-.16,0-.22a6.82,6.82,0,0,0-13.64,0v.22A6.81,6.81,0,0,0,42.79,24a6.74,6.74,0,0,0,3.64-1,6.81,6.81,0,1,0,6.81-11.79"></path><path class="cls-2" d="M47.71,17.65a6.35,6.35,0,0,0,1.12-.33,6,6,0,0,1-1.1,3.38,4.89,4.89,0,0,1-.84-.73,4.64,4.64,0,0,0,.82-2.32"></path><path class="cls-2" d="M46.43,4.91a6.06,6.06,0,0,1,0,12.11l-.56,0a4,4,0,0,1,.2-1.08l.36,0a5,5,0,0,0,0-9.91,4.91,4.91,0,0,0-4.93,4.51,8.59,8.59,0,0,0-1.13.32,6.07,6.07,0,0,1,6.06-5.93"></path><path class="cls-2" d="M50.06,11.16l.55,0a4,4,0,0,1-.21,1.08l-.34,0a4.84,4.84,0,0,0-2.12.48,6.51,6.51,0,0,0-.84-.82,6.09,6.09,0,0,1,3-.76"></path><path class="cls-2" d="M42.79,23.26a6.05,6.05,0,1,1,5.52-8.56,4.15,4.15,0,0,1-1,.37,5,5,0,1,0-4.48,7.09,5.17,5.17,0,0,0,2.13-.47,7.84,7.84,0,0,0,.83.8,6,6,0,0,1-3,.77"></path><path class="cls-2" d="M42,13.1A5,5,0,0,0,43.6,15a5.59,5.59,0,0,0-.28,1.14,6,6,0,0,1-2.4-2.69,4.23,4.23,0,0,1,1-.37"></path><path class="cls-2" d="M50.06,23.26A6.06,6.06,0,0,1,44,17.21a5.93,5.93,0,0,1,1.12-3.5,4.77,4.77,0,0,1,.83.73,4.88,4.88,0,0,0-.86,2.77,5,5,0,0,0,9.93,0,4.89,4.89,0,0,0-2.14-4.06A8.62,8.62,0,0,0,53.16,12a6.05,6.05,0,0,1-3.1,11.25"></path><rect class="cls-1" x="195.53" y="0.95" width="1.12" height="80.15"></rect></g></g></svg>